<svg width="24" height="24" viewBox="0 0 24 24" fill="none" xmlns="http://www.w3.org/2000/svg">
<path d="M12.0002 21.9572L14.7982 6.22125C17.4652 6.22125 18.3064 6.51369 18.4279 7.70738C18.4279 7.70738 20.2169 7.0403 21.1193 5.68549C17.5981 4.05384 14.0601 3.98025 14.0601 3.98025L11.9956 6.49476L12.0002 6.49445L9.93576 3.97986C9.93576 3.97986 6.39768 4.05352 2.87695 5.68517C3.77851 7.03999 5.56829 7.70707 5.56829 7.70707C5.69046 6.5133 6.53065 6.22085 9.17972 6.21896L12.0002 21.9572Z" fill="#E8EAED"/>
<path d="M12 3.25404C14.8464 3.23227 18.1044 3.69436 21.4396 5.148C21.8854 4.34567 22 3.99107 22 3.99107C18.3541 2.54863 14.9398 2.05499 11.9996 2.0426C9.05959 2.05499 5.64542 2.54871 2 3.99107C2 3.99107 2.16263 4.42785 2.55997 5.148C5.89457 3.69436 9.15313 3.23227 11.9996 3.25404H12Z" fill="#E8EAED"/>
</svg>
